<?xml version="1.0" encoding="UTF-8" standalone="no"?>
<!DOCTYPE svg PUBLIC "-//W3C//DTD SVG 1.1//EN" "http://www.w3.org/Graphics/SVG/1.1/DTD/svg11.dtd">
<svg width="100%" height="100%" viewBox="0 0 300 300" version="1.1" xmlns="http://www.w3.org/2000/svg" xmlns:xlink="http://www.w3.org/1999/xlink" xml:space="preserve" xmlns:serif="http://www.serif.com/" style="fill-rule:evenodd;clip-rule:evenodd;stroke-linejoin:round;stroke-miterlimit:2;">
    <g transform="matrix(0.823571,0,0,0.823571,-71.5548,-172.079)">
        <path d="M181.551,252.673C227.64,252.673 265.059,290.091 265.059,336.18C265.059,382.269 227.64,419.687 181.551,419.687C135.463,419.687 98.044,382.269 98.044,336.18C98.044,290.091 135.463,252.673 181.551,252.673ZM181.551,271.838C217.063,271.838 245.893,300.669 245.893,336.18C245.893,371.691 217.063,400.522 181.551,400.522C146.04,400.522 117.21,371.691 117.21,336.18C117.21,300.669 146.04,271.838 181.551,271.838Z" style="fill:rgb(255,128,80);"/>
    </g>
    <g transform="matrix(1.16752,0,0,0.919066,-333.284,-63.2204)">
        <path d="M504.042,328.748L504.042,315.058C504.042,307.886 501.187,301.2 496.454,297.29C491.721,293.38 485.752,292.776 480.592,295.685C469.481,301.972 457.826,308.214 455.348,308.214L334.989,308.214C332.013,308.214 329.596,311.281 329.596,315.059L329.596,328.748C329.596,332.526 332.013,335.593 334.989,335.593L498.648,335.593C501.625,335.593 504.042,332.526 504.042,328.748Z" style="fill:rgb(255,128,80);"/>
    </g>
    <g transform="matrix(4.33623e-17,-0.708161,0.751999,4.60467e-17,-10.7864,399.867)">
        <path d="M504.042,315.059C504.042,311.281 500.785,308.214 496.773,308.214L336.864,308.214C332.853,308.214 329.596,311.281 329.596,315.059L329.596,328.748C329.596,332.526 332.853,335.593 336.864,335.593L496.773,335.593C500.785,335.593 504.042,332.526 504.042,328.748L504.042,315.059Z" style="fill:rgb(255,128,80);"/>
    </g>
    <g transform="matrix(-0.708161,-8.67247e-17,9.20933e-17,-0.751999,526.459,346.764)">
        <path d="M504.042,315.059C504.042,311.281 500.785,308.214 496.773,308.214L336.864,308.214C332.853,308.214 329.596,311.281 329.596,315.059L329.596,328.748C329.596,332.526 332.853,335.593 336.864,335.593L496.773,335.593C500.785,335.593 504.042,332.526 504.042,328.748L504.042,315.059Z" style="fill:rgb(255,128,80);"/>
    </g>
    <g transform="matrix(0.823571,0,0,0.823571,-166.869,-30.2394)">
        <circle cx="297.284" cy="163.954" r="19.862" style="fill:rgb(255,128,80);"/>
    </g>
</svg>
